<?xml version="1.0" standalone="no"?><!DOCTYPE svg PUBLIC "-//W3C//DTD SVG 1.1//EN" "http://www.w3.org/Graphics/SVG/1.1/DTD/svg11.dtd"><svg t="1574386986252" class="icon" viewBox="0 0 1024 1024" version="1.1" xmlns="http://www.w3.org/2000/svg" p-id="2479" xmlns:xlink="http://www.w3.org/1999/xlink" width="200" height="200"><defs><style type="text/css"></style></defs><path d="M1009.910743 369.030164L534.307991 7.586523c-13.1861-10.115364-31.610513-10.115364-44.796613 0L14.269889 369.030164c-9.031575 6.683366-14.269889 17.340624-14.269889 28.539778 0 29.804198 33.958723 46.602928 57.62145 28.539778l21.133886-16.076204 61.053449 569.892397c2.709473 25.107779 23.843359 44.074087 48.951137 44.074087h646.299524c25.107779 0 46.241665-18.966308 48.951138-44.074087L945.064032 410.033516l21.314518 16.076204c23.662727 18.06315 57.62145 1.083789 57.62145-28.72041 0-11.018522-5.238314-21.675781-14.089257-28.359146zM817.899453 919.053096c-1.986947 18.605045-17.701887 32.694302-36.306932 32.694302H242.226848c-18.605045 0-34.319986-14.089257-36.306933-32.694302l-59.969659-559.957665L489.511378 97.902276c13.1861-10.115364 31.610513-10.115364 44.796613 0L877.869113 358.9148l-59.96966 560.138296z" fill="#ffffff" p-id="2480"></path><path d="M511.909684 531.417887c-94.470277 0-171.058035 76.587758-171.058035 171.058035v81.64544c0 19.869466 16.256835 36.126301 36.126301 36.126301s36.126301-16.256835 36.126301-36.126301v-80.019757c0-54.189451 42.990298-99.527959 97.360381-100.250485 55.27324-0.903158 100.431117 43.893456 100.431117 98.805433v81.64544c0 19.869466 16.256835 36.126301 36.126301 36.126301s36.126301-16.256835 36.126301-36.126301V702.656553c0-94.650908-76.587758-171.238666-171.238667-171.238666z" fill="#ffffff" p-id="2481"></path></svg>