<?xml version="1.0" standalone="no"?><!DOCTYPE svg PUBLIC "-//W3C//DTD SVG 1.1//EN" "http://www.w3.org/Graphics/SVG/1.1/DTD/svg11.dtd"><svg t="1574385632620" class="icon" viewBox="0 0 1024 1024" version="1.1" xmlns="http://www.w3.org/2000/svg" p-id="1457" xmlns:xlink="http://www.w3.org/1999/xlink" width="200" height="200"><defs><style type="text/css"></style></defs><path d="M866.2 758.4H308.4c-10.7-26.6-32.5-47.6-59.7-57.1v-504c0-16-6.2-31.1-17.6-42.4l-48.5-48.5c-11.7-11.7-30.7-11.7-42.4 0s-11.7 30.7 0 42.4l48.5 48.5v502c-42.1 11.8-73.1 50.5-73.1 96.3 0 55.1 44.9 100 100 100 47.3 0 87.1-33 97.4-77.3h523.2v47.5c0 16.6 13.4 30 30 30s30-13.4 30-30v-77.5c0-16.5-13.4-29.9-30-29.9z m-650.6 77.2c-22.1 0-40-17.9-40-40s17.9-40 40-40 40 17.9 40 40-17.9 40-40 40z m146.5-112.4h430.2c33.1 0 60-26.9 60-60V233c0-33.1-26.9-60-60-60H362.1c-33.1 0-60 26.9-60 60v430.2c0 33.1 26.9 60 60 60zM637.5 233v124.4l-44.2-33.5c-10.7-8.1-25.5-8.1-36.2 0l-44.2 33.5V233h124.6z m-275.4 0h90.8v184.8c0 11.4 6.5 21.8 16.7 26.9 4.2 2.1 8.8 3.1 13.3 3.1 6.4 0 12.8-2.1 18.1-6.1l74.2-56.3 74.2 56.3c9.1 6.9 21.3 8 31.5 3 10.2-5.1 16.7-15.5 16.7-26.9V233h94.7v430.2H362.1V233z" p-id="1458" fill="#ffffff"></path></svg>