<?xml version="1.0" standalone="no"?><!DOCTYPE svg PUBLIC "-//W3C//DTD SVG 1.1//EN" "http://www.w3.org/Graphics/SVG/1.1/DTD/svg11.dtd"><svg t="1574385683223" class="icon" viewBox="0 0 1024 1024" version="1.1" xmlns="http://www.w3.org/2000/svg" p-id="1670" xmlns:xlink="http://www.w3.org/1999/xlink" width="200" height="200"><defs><style type="text/css"></style></defs><path d="M799.744 961.024h-573.44V215.552c0-47.616 38.4-86.016 86.016-86.016h401.408c47.616 0 86.016 38.4 86.016 86.016v745.472zM283.648 903.68H742.4V215.552c0-15.872-12.8-28.672-28.672-28.672H312.32c-15.872 0-28.672 12.8-28.672 28.672v688.128z" p-id="1671" fill="#ffffff"></path><path d="M857.088 968.704H168.96c-15.872 0-28.672-12.8-28.672-28.672 0-15.872 12.8-28.672 28.672-28.672h688.128c15.872 0 28.672 12.8 28.672 28.672 0 15.872-12.8 28.672-28.672 28.672z m-372.736-172.032H369.664c-15.872 0-28.672-12.8-28.672-28.672 0-15.872 12.8-28.672 28.672-28.672h114.688c15.872 0 28.672 12.8 28.672 28.672 0 15.872-12.8 28.672-28.672 28.672z m0-214.528H369.664c-15.872 0-28.672-12.8-28.672-28.672 0-15.872 12.8-28.672 28.672-28.672h114.688c15.872 0 28.672 12.8 28.672 28.672 0 15.872-12.8 28.672-28.672 28.672z m0-186.88H369.664c-15.872 0-28.672-12.8-28.672-28.672 0-15.872 12.8-28.672 28.672-28.672h114.688c15.872 0 28.672 12.8 28.672 28.672 0 15.872-12.8 28.672-28.672 28.672z m172.032 401.408H599.04c-15.872 0-28.672-12.8-28.672-28.672 0-15.872 12.8-28.672 28.672-28.672h57.344c15.872 0 28.672 12.8 28.672 28.672 0 15.872-12.8 28.672-28.672 28.672z m0-214.528H599.04c-15.872 0-28.672-12.8-28.672-28.672 0-15.872 12.8-28.672 28.672-28.672h57.344c15.872 0 28.672 12.8 28.672 28.672 0 15.872-12.8 28.672-28.672 28.672z m0-186.88H599.04c-15.872 0-28.672-12.8-28.672-28.672 0-15.872 12.8-28.672 28.672-28.672h57.344c15.872 0 28.672 12.8 28.672 28.672 0 15.872-12.8 28.672-28.672 28.672z m-143.36-242.688c-15.872 0-28.672-12.8-28.672-28.672v-44.032c0-15.872 12.8-28.672 28.672-28.672 15.872 0 28.672 12.8 28.672 28.672v44.032c0 15.872-12.8 28.672-28.672 28.672z" p-id="1672" fill="#ffffff"></path></svg>